<?xml version="1.0" encoding="UTF-8" standalone="no"?>
<!-- Created with Inkscape (http://www.inkscape.org/) -->

<svg
   xmlns:dc="http://purl.org/dc/elements/1.1/"
   xmlns:cc="http://creativecommons.org/ns#"
   xmlns:rdf="http://www.w3.org/1999/02/22-rdf-syntax-ns#"
   xmlns:svg="http://www.w3.org/2000/svg"
   xmlns="http://www.w3.org/2000/svg"
   xmlns:xlink="http://www.w3.org/1999/xlink"
   xmlns:sodipodi="http://sodipodi.sourceforge.net/DTD/sodipodi-0.dtd"
   xmlns:inkscape="http://www.inkscape.org/namespaces/inkscape"
   width="32px"
   height="32px"
   id="svg2985"
   version="1.1"
   inkscape:version="0.48.2 r9819"
   sodipodi:docname="default.svg">
  <defs
     id="defs5554">
    <linearGradient
       y2="13.037037"
       x2="32"
       y1="13.037037"
       x1="0"
       gradientTransform="matrix(1,0,0,0.6875,0,5)"
       gradientUnits="userSpaceOnUse"
       id="linearGradient3062"
       xlink:href="#linearGradient11855"
       inkscape:collect="always" />
    <linearGradient
       y2="13.037037"
       x2="32"
       y1="13.037037"
       x1="0"
       gradientTransform="matrix(1,0,0,0.84375,-32,-27)"
       gradientUnits="userSpaceOnUse"
       id="linearGradient5922"
       xlink:href="#linearGradient11855"
       inkscape:collect="always" />
    <linearGradient
       id="linearGradient11855-7">
      <stop
         style="stop-color:#888a85;stop-opacity:1"
         offset="0"
         id="stop11857-9" />
      <stop
         id="stop11863-2"
         offset="0.5"
         style="stop-color:#babdb6;stop-opacity:1" />
      <stop
         style="stop-color:#888a85;stop-opacity:1"
         offset="1"
         id="stop11859-4" />
    </linearGradient>
    <linearGradient
       y2="15"
       x2="32"
       y1="15"
       x1="0"
       gradientTransform="translate(-70,-32)"
       gradientUnits="userSpaceOnUse"
       id="linearGradient3063"
       xlink:href="#linearGradient3065"
       inkscape:collect="always" />
    <linearGradient
       id="linearGradient11855">
      <stop
         id="stop11857"
         offset="0"
         style="stop-color:#888a85;stop-opacity:1" />
      <stop
         style="stop-color:#babdb6;stop-opacity:1"
         offset="0.5"
         id="stop11863" />
      <stop
         id="stop11859"
         offset="1"
         style="stop-color:#888a85;stop-opacity:1" />
    </linearGradient>
    <linearGradient
       id="linearGradient3065">
      <stop
         style="stop-color:#888a85;stop-opacity:0"
         offset="0"
         id="stop3067" />
      <stop
         id="stop3069"
         offset="0.5"
         style="stop-color:#babdb6;stop-opacity:1" />
      <stop
         style="stop-color:#888a85;stop-opacity:0"
         offset="1"
         id="stop3071" />
    </linearGradient>
    <linearGradient
       id="linearGradient3800">
      <stop
         style="stop-color:#929490;stop-opacity:1;"
         offset="0"
         id="stop3802" />
      <stop
         id="stop3808"
         offset="0.5625"
         style="stop-color:#b3b5b0;stop-opacity:1;" />
      <stop
         id="stop3804"
         offset="1"
         style="stop-color:#92968a;stop-opacity:1;" />
    </linearGradient>
  </defs>
  <sodipodi:namedview
     id="base"
     pagecolor="#ffffff"
     bordercolor="#666666"
     borderopacity="1.0"
     inkscape:pageopacity="0.0"
     inkscape:pageshadow="2"
     inkscape:zoom="14.481547"
     inkscape:cx="0.32011118"
     inkscape:cy="14.600336"
     inkscape:current-layer="layer1"
     showgrid="true"
     inkscape:grid-bbox="true"
     inkscape:document-units="px"
     inkscape:window-width="1625"
     inkscape:window-height="1006"
     inkscape:window-x="1280"
     inkscape:window-y="0"
     inkscape:window-maximized="1">
    <inkscape:grid
       type="xygrid"
       id="grid2993"
       empspacing="5"
       visible="true"
       enabled="true"
       snapvisiblegridlinesonly="true" />
  </sodipodi:namedview>
  <metadata
     id="metadata2990">
    <rdf:RDF>
      <cc:Work
         rdf:about="">
        <dc:format>image/svg+xml</dc:format>
        <dc:type
           rdf:resource="http://purl.org/dc/dcmitype/StillImage" />
        <dc:title />
      </cc:Work>
    </rdf:RDF>
  </metadata>
  <g
     id="layer1"
     inkscape:label="Layer 1"
     inkscape:groupmode="layer">
    <rect
       style="fill:#888a85;fill-opacity:1;stroke:none;opacity:0.57758621"
       id="rect5372"
       width="32"
       height="32"
       x="0"
       y="0" />
    <path
       style="fill:none;fill-opacity:1;stroke:none"
       d="m 0,0 c 10.666667,0 21.333333,0 32,0 0,10.666667 0,21.333333 0,32 C 21.333333,32 10.666667,32 0,32 0,21.333333 0,10.666667 0,0 z"
       id="rect3784"
       inkscape:connector-curvature="0" />
    <g
       id="g6087"
       transform="translate(-0.30000128,0.50000024)"
       style="fill:#ef2929;opacity:0.41810345">
      <rect
         transform="matrix(1,0,0.64817876,0.76148821,0,0)"
         y="3.9396541"
         x="0.44639996"
         height="32.830448"
         width="5.3200002"
         id="rect5575"
         style="fill:#ef2929;fill-opacity:1;stroke:none" />
      <rect
         style="fill:#ef2929;fill-opacity:1;stroke:none"
         id="rect6085"
         width="5.3200002"
         height="32.830448"
         x="-32.153603"
         y="3.9396541"
         transform="matrix(-1,0,-0.64817876,0.76148821,0,0)" />
    </g>
    <g
       inkscape:label="Layer 1"
       id="layer1-5"
       transform="translate(41.590533,32.434708)">
      <rect
         y="0"
         x="0"
         height="32"
         width="32"
         id="rect3012"
         style="fill:#888a85;fill-opacity:1;stroke:none" />
      <rect
         y="5"
         x="0"
         height="22"
         width="32"
         id="rect6851"
         style="fill:url(#linearGradient3062);fill-opacity:1;stroke:none" />
      <rect
         transform="matrix(0,-1,1,0,0,0)"
         style="fill:#2e3436;fill-opacity:1;stroke:none"
         id="rect11845"
         width="3"
         height="18.552425"
         x="-5"
         y="6.7237873" />
      <rect
         transform="matrix(0,-1,1,0,0,0)"
         style="fill:#edd400;fill-opacity:1;stroke:none"
         id="rect11849"
         width="3"
         height="4"
         x="-5"
         y="10" />
      <rect
         transform="scale(-1,-1)"
         y="-25"
         x="-30"
         height="18.276213"
         width="3"
         id="rect4069"
         style="fill:#2e3436;fill-opacity:1;stroke:none" />
      <rect
         transform="scale(-1,-1)"
         y="-22"
         x="-30"
         height="4"
         width="3"
         id="rect4073"
         style="fill:#edd400;fill-opacity:1;stroke:none" />
      <rect
         transform="scale(-1,-1)"
         style="fill:#edd400;fill-opacity:1;stroke:none"
         id="rect4075"
         width="3"
         height="4"
         x="-30"
         y="-14" />
      <rect
         transform="matrix(0,-1,1,0,0,0)"
         y="18"
         x="-5"
         height="4"
         width="3"
         id="rect4093"
         style="fill:#edd400;fill-opacity:1;stroke:none" />
      <path
         inkscape:connector-curvature="0"
         id="path4454"
         d="m 25,2 0,3 c 1.104569,0 2,0.895431 2,2 l 3,0 C 30,4.238576 27.761424,2 25,2 z"
         style="fill:#2e3436;fill-opacity:1;stroke:none" />
      <path
         inkscape:connector-curvature="0"
         id="path4462"
         d="m 25.976562,2.111328 -0.5625,2.9375 c 0.781171,0.159851 1.402649,0.781329 1.5625,1.5625 l 2.9375,-0.5625 c -0.002,-0.01004 0.002,-0.02124 0,-0.03125 -0.399627,-1.952928 -1.953322,-3.506623 -3.90625,-3.90625 -0.01001,-0.002 -0.02121,0.002 -0.03125,0 z"
         style="fill:#edd400;fill-opacity:1;stroke:none" />
      <rect
         transform="scale(1,-1)"
         style="fill:#2e3436;fill-opacity:1;stroke:none"
         id="rect5872"
         width="3"
         height="18.207161"
         x="2"
         y="-25" />
      <rect
         transform="scale(1,-1)"
         style="fill:#edd400;fill-opacity:1;stroke:none"
         id="rect5876"
         width="3"
         height="4"
         x="2"
         y="-22" />
      <rect
         transform="scale(1,-1)"
         y="-14"
         x="2"
         height="4"
         width="3"
         id="rect5878"
         style="fill:#edd400;fill-opacity:1;stroke:none" />
      <path
         style="fill:#2e3436;fill-opacity:1;stroke:none"
         d="M 7,2 7,5 C 5.895431,5 5,5.895431 5,7 L 2,7 C 2,4.238576 4.238576,2 7,2 z"
         id="path5880"
         inkscape:connector-curvature="0" />
      <path
         style="fill:#edd400;fill-opacity:1;stroke:none"
         d="m 6.069053,2.121481 0.5625,2.9375 c -0.781171,0.159851 -1.402649,0.781329 -1.5625,1.5625 l -2.9375,-0.5625 c 0.002,-0.01004 -0.002,-0.02124 0,-0.03125 0.399627,-1.952928 1.953322,-3.506623 3.90625,-3.90625 0.01001,-0.002 0.02121,0.002 0.03125,0 z"
         id="path5882"
         inkscape:connector-curvature="0" />
      <rect
         y="6.7237873"
         x="27"
         height="18.552425"
         width="3"
         id="rect3065"
         style="fill:#2e3436;fill-opacity:1;stroke:none"
         transform="matrix(0,1,1,0,0,0)" />
      <rect
         y="10"
         x="27"
         height="4"
         width="3"
         id="rect3067"
         style="fill:#edd400;fill-opacity:1;stroke:none"
         transform="matrix(0,1,1,0,0,0)" />
      <rect
         style="fill:#edd400;fill-opacity:1;stroke:none"
         id="rect3069"
         width="3"
         height="4"
         x="27"
         y="18"
         transform="matrix(0,1,1,0,0,0)" />
      <path
         style="fill:#2e3436;fill-opacity:1;stroke:none"
         d="m 25,30 0,-3 c 1.104569,0 2,-0.895431 2,-2 l 3,0 c 0,2.761424 -2.238576,5 -5,5 z"
         id="path3071"
         inkscape:connector-curvature="0" />
      <path
         style="fill:#edd400;fill-opacity:1;stroke:none"
         d="m 25.976562,29.888672 -0.5625,-2.9375 c 0.781171,-0.159851 1.402649,-0.781329 1.5625,-1.5625 l 2.9375,0.5625 c -0.002,0.01004 0.002,0.02124 0,0.03125 -0.399627,1.952928 -1.953322,3.506623 -3.90625,3.90625 -0.01001,0.002 -0.02121,-0.002 -0.03125,0 z"
         id="path3073"
         inkscape:connector-curvature="0" />
      <path
         inkscape:connector-curvature="0"
         id="path3075"
         d="M 7,30 7,27 C 5.895431,27 5,26.104569 5,25 l -3,0 c 0,2.761424 2.238576,5 5,5 z"
         style="fill:#2e3436;fill-opacity:1;stroke:none" />
      <path
         inkscape:connector-curvature="0"
         id="path3077"
         d="m 6.069053,29.878519 0.5625,-2.9375 c -0.781171,-0.159851 -1.402649,-0.781329 -1.5625,-1.5625 l -2.9375,0.5625 c 0.002,0.01004 -0.002,0.02124 0,0.03125 0.399627,1.952928 1.953322,3.506623 3.90625,3.90625 0.01001,0.002 0.02121,-0.002 0.03125,0 z"
         style="fill:#edd400;fill-opacity:1;stroke:none" />
    </g>
  </g>
</svg>
