<?xml version="1.0" encoding="UTF-8" standalone="no"?>
<!-- Created with Inkscape (http://www.inkscape.org/) -->

<svg
   xmlns:dc="http://purl.org/dc/elements/1.1/"
   xmlns:cc="http://creativecommons.org/ns#"
   xmlns:rdf="http://www.w3.org/1999/02/22-rdf-syntax-ns#"
   xmlns:svg="http://www.w3.org/2000/svg"
   xmlns="http://www.w3.org/2000/svg"
   xmlns:xlink="http://www.w3.org/1999/xlink"
   xmlns:sodipodi="http://sodipodi.sourceforge.net/DTD/sodipodi-0.dtd"
   xmlns:inkscape="http://www.inkscape.org/namespaces/inkscape"
   width="128"
   height="128"
   id="svg2985"
   version="1.1"
   inkscape:version="0.48.2 r9819"
   sodipodi:docname="monster.svg">
  <defs
     id="defs5554">
    <linearGradient
       id="linearGradient4766">
      <stop
         id="stop4768"
         offset="0"
         style="stop-color:#73d216;stop-opacity:1" />
      <stop
         id="stop4770"
         offset="1"
         style="stop-color:#4e9a06;stop-opacity:1" />
    </linearGradient>
    <linearGradient
       inkscape:collect="always"
       id="linearGradient3514">
      <stop
         style="stop-color:#000000;stop-opacity:1"
         offset="0"
         id="stop3516" />
      <stop
         style="stop-color:#000000;stop-opacity:0"
         offset="1"
         id="stop3518" />
    </linearGradient>
    <linearGradient
       id="linearGradient3922">
      <stop
         id="stop3924"
         offset="0"
         style="stop-color:#2e3436;stop-opacity:1;" />
      <stop
         id="stop3926"
         offset="1"
         style="stop-color:#df3937;stop-opacity:1;" />
    </linearGradient>
    <linearGradient
       id="linearGradient3836">
      <stop
         style="stop-color:#8ae234;stop-opacity:1"
         offset="0"
         id="stop3838" />
      <stop
         style="stop-color:#4e9a06;stop-opacity:1"
         offset="1"
         id="stop3840" />
    </linearGradient>
    <linearGradient
       inkscape:collect="always"
       xlink:href="#linearGradient3922"
       id="linearGradient3443"
       gradientUnits="userSpaceOnUse"
       gradientTransform="matrix(1.1982759,0,0,1.1982759,-328.97768,-423.79418)"
       x1="23.5"
       y1="409.70712"
       x2="23.5"
       y2="351.31479" />
    <linearGradient
       inkscape:collect="always"
       xlink:href="#linearGradient3836"
       id="linearGradient3449"
       gradientUnits="userSpaceOnUse"
       x1="321.10742"
       y1="250.98605"
       x2="296.51218"
       y2="181.07587"
       gradientTransform="matrix(1.6232795,0,0,1.6232795,-808.74203,-475.43587)" />
    <linearGradient
       inkscape:collect="always"
       xlink:href="#linearGradient3836"
       id="linearGradient3508"
       gradientUnits="userSpaceOnUse"
       gradientTransform="matrix(0.42253347,0,0,0.42253347,-64.326117,-158.24246)"
       x1="321.10742"
       y1="250.98605"
       x2="296.51218"
       y2="181.07587" />
    <linearGradient
       inkscape:collect="always"
       xlink:href="#linearGradient3922"
       id="linearGradient3510"
       gradientUnits="userSpaceOnUse"
       gradientTransform="matrix(0.31190665,0,0,0.31190665,60.554716,-144.80033)"
       x1="23.5"
       y1="409.70712"
       x2="23.5"
       y2="351.31479" />
    <radialGradient
       inkscape:collect="always"
       xlink:href="#linearGradient3514"
       id="radialGradient4290"
       cx="71.5"
       cy="124.66667"
       fx="71.5"
       fy="124.66667"
       r="65"
       gradientTransform="matrix(0.76923077,0,0,0.23076922,15,79.23077)"
       gradientUnits="userSpaceOnUse" />
    <linearGradient
       inkscape:collect="always"
       xlink:href="#linearGradient4766"
       id="linearGradient4764"
       x1="100"
       y1="-38"
       x2="25"
       y2="-38"
       gradientUnits="userSpaceOnUse" />
  </defs>
  <sodipodi:namedview
     id="base"
     pagecolor="#ffffff"
     bordercolor="#666666"
     borderopacity="1.0"
     inkscape:pageopacity="0.0"
     inkscape:pageshadow="2"
     inkscape:zoom="3.6203868"
     inkscape:cx="62.257332"
     inkscape:cy="94.169284"
     inkscape:current-layer="layer1"
     showgrid="true"
     inkscape:grid-bbox="true"
     inkscape:document-units="px"
     inkscape:window-width="1625"
     inkscape:window-height="1006"
     inkscape:window-x="1280"
     inkscape:window-y="0"
     inkscape:window-maximized="1">
    <inkscape:grid
       type="xygrid"
       id="grid2993"
       empspacing="5"
       visible="true"
       enabled="true"
       snapvisiblegridlinesonly="true" />
  </sodipodi:namedview>
  <metadata
     id="metadata2990">
    <rdf:RDF>
      <cc:Work
         rdf:about="">
        <dc:format>image/svg+xml</dc:format>
        <dc:type
           rdf:resource="http://purl.org/dc/dcmitype/StillImage" />
        <dc:title />
      </cc:Work>
    </rdf:RDF>
  </metadata>
  <g
     id="layer1"
     inkscape:label="Layer 1"
     inkscape:groupmode="layer"
     transform="translate(0,96)">
    <path
       inkscape:connector-curvature="0"
       id="path3464"
       d="m 63.086971,-44.5072 c 2.776494,0 5.552985,0 8.329478,0 0,2.776488 0,5.552981 0,8.329474 -2.776493,0 -5.552984,0 -8.329478,0 0,-2.776493 0,-5.552986 0,-8.329474 z"
       style="fill:none;stroke:none" />
    <path
       inkscape:connector-curvature="0"
       sodipodi:nodetypes="csssssc"
       id="path3466"
       d="m 100.56787,-45.873372 c 0,2.25671 -0.19506,35.7343 -0.56787,37.873372 -2.849666,16.3501227 -16.084891,-2.554666 -31.981803,-2.554666 -15.652401,0 -28.724369,19.2822461 -31.842975,3.30624 -0.46309,-2.3723362 -0.706707,-36.102926 -0.706707,-38.624946 0,-19.50598 14.572989,-35.318701 32.549682,-35.318701 17.976694,0 32.549673,15.812721 32.549673,35.318701 z"
       style="fill:url(#linearGradient4764);fill-opacity:1;stroke:none" />
    <path
       id="path3468"
       d="m 87.182311,-58.099895 c 0,9.751067 -7.9048,17.655861 -17.655862,17.655861 -9.751067,0 -17.655865,-7.904794 -17.655865,-17.655861 0,-9.751067 7.904798,-17.655861 17.655865,-17.655861 9.751062,0 17.655862,7.904794 17.655862,17.655861 z"
       style="fill:url(#linearGradient3508);fill-opacity:1;stroke:none"
       inkscape:connector-curvature="0" />
    <path
       id="path3470"
       d="m 81.006878,-59.202656 c 0,6.705889 -5.436196,12.142082 -12.142082,12.142082 -6.705888,0 -12.142079,-5.436193 -12.142079,-12.142082 0,-6.705889 5.436191,-12.142081 12.142079,-12.142081 6.705886,0 12.142082,5.436192 12.142082,12.142081 z"
       style="fill:#ffffff;fill-opacity:1;stroke:none"
       inkscape:connector-curvature="0" />
    <path
       id="path3472"
       d="m 74.610887,-59.202656 c 0,3.173481 -2.572614,5.746094 -5.746093,5.746094 -3.173479,0 -5.74609,-2.572613 -5.74609,-5.746094 0,-3.173481 2.572611,-5.746093 5.74609,-5.746093 3.173479,0 5.746093,2.572612 5.746093,5.746093 z"
       style="fill:#2e3436;fill-opacity:1;stroke:none"
       inkscape:connector-curvature="0" />
    <path
       id="path3474"
       d="m 73.067027,-60.967065 c 0,0.980948 -0.795215,1.77617 -1.776168,1.77617 -0.98095,0 -1.776168,-0.795222 -1.776168,-1.77617 0,-0.980956 0.795218,-1.77617 1.776168,-1.77617 0.980953,0 1.776168,0.795214 1.776168,1.77617 z"
       style="fill:#ffffff;fill-opacity:1;stroke:none"
       inkscape:connector-curvature="0" />
    <path
       inkscape:connector-curvature="0"
       sodipodi:nodetypes="ccccccc"
       id="path3476"
       d="m 91.745376,-31.150089 0,3.112575 c 0,1.038573 -4.451531,1.874684 -9.981011,1.874684 l -27.759687,0 c -5.529483,0 -9.981014,-0.836111 -9.981014,-1.874684 l 0,-3.112575 c 9.285115,-0.345062 40.043664,-8.988811 47.721712,0 z"
       style="fill:url(#linearGradient3510);fill-opacity:1;stroke:none" />
    <path
       inkscape:connector-curvature="0"
       id="path3478"
       d="m 55.710417,-32.786848 c -2.381693,0.396028 -4.587104,0.760437 -6.530545,1.052685 -0.0054,0.07072 -0.0097,0.141955 -0.0097,0.214435 l 0,6.345352 c 0,1.264912 0.832861,2.290564 1.87144,2.290564 l 3.119065,0 c 1.038579,0 1.871441,-1.025652 1.871441,-2.290564 l 0,-6.345352 c 0,-0.471085 -0.122449,-0.904303 -0.321654,-1.26712 z"
       style="fill:#ffffff;fill-opacity:1;stroke:none" />
    <path
       inkscape:connector-curvature="0"
       id="path3480"
       d="m 66.870822,-30.116149 c -4.608069,0 -8.41801,1.719324 -9.035543,3.957317 l 18.07109,0 c -0.617532,-2.237993 -4.427475,-3.957317 -9.035547,-3.957317 z"
       style="fill:#2e3436;fill-opacity:1;stroke:none" />
    <path
       inkscape:connector-curvature="0"
       id="path3482"
       d="m 77.456154,-35.223619 c -0.596349,0.0021 -1.201626,0.0093 -1.812959,0.02923 -0.0075,0.08331 -0.0097,0.167605 -0.0097,0.253425 l 0,6.355097 c 0,1.264912 0.84261,2.280816 1.881187,2.280816 l 3.109318,0 c 1.038577,0 1.871441,-1.015904 1.871441,-2.280816 l 0,-6.355097 c 0,-0.0099 9.8e-5,-0.0194 0,-0.02923 -1.58037,-0.179238 -3.273948,-0.260132 -5.039242,-0.253425 z"
       style="fill:#ffffff;fill-opacity:1;stroke:none" />
    <g
       transform="matrix(0.31190665,0,0,0.31190665,-117.85589,-218.78251)"
       style="fill:#4e9a06"
       id="g3484">
      <path
         transform="translate(480.96909,446.43028)"
         id="path3486"
         d="m 46.669049,27.052307 c 0,3.319457 -2.690951,6.010408 -6.010407,6.010408 -3.319457,0 -6.010408,-2.690951 -6.010408,-6.010408 0,-3.319456 2.690951,-6.010407 6.010408,-6.010407 3.319456,0 6.010407,2.690951 6.010407,6.010407 z"
         style="fill:#4e9a06;fill-opacity:1;stroke:none"
         inkscape:connector-curvature="0" />
      <path
         transform="translate(471.7767,462.34018)"
         id="path3488"
         d="m 46.669049,27.052307 c 0,3.319457 -2.690951,6.010408 -6.010407,6.010408 -3.319457,0 -6.010408,-2.690951 -6.010408,-6.010408 0,-3.319456 2.690951,-6.010407 6.010408,-6.010407 3.319456,0 6.010407,2.690951 6.010407,6.010407 z"
         style="fill:#4e9a06;fill-opacity:1;stroke:none"
         inkscape:connector-curvature="0" />
      <path
         transform="matrix(-1,0,0,1,706.549,439.71276)"
         id="path3490"
         d="m 46.669049,27.052307 c 0,3.319457 -2.690951,6.010408 -6.010407,6.010408 -3.319457,0 -6.010408,-2.690951 -6.010408,-6.010408 0,-3.319456 2.690951,-6.010407 6.010408,-6.010407 3.319456,0 6.010407,2.690951 6.010407,6.010407 z"
         style="fill:#4e9a06;fill-opacity:1;stroke:none"
         inkscape:connector-curvature="0" />
      <path
         transform="matrix(-1,0,0,1,715.74139,455.62266)"
         id="path3492"
         d="m 46.669049,27.052307 c 0,3.319457 -2.690951,6.010408 -6.010407,6.010408 -3.319457,0 -6.010408,-2.690951 -6.010408,-6.010408 0,-3.319456 2.690951,-6.010407 6.010408,-6.010407 3.319456,0 6.010407,2.690951 6.010407,6.010407 z"
         style="fill:#4e9a06;fill-opacity:1;stroke:none"
         inkscape:connector-curvature="0" />
      <path
         transform="matrix(-1,0,0,1,724.93378,469.7648)"
         id="path3494"
         d="m 46.669049,27.052307 c 0,3.319457 -2.690951,6.010408 -6.010407,6.010408 -3.319457,0 -6.010408,-2.690951 -6.010408,-6.010408 0,-3.319456 2.690951,-6.010407 6.010408,-6.010407 3.319456,0 6.010407,2.690951 6.010407,6.010407 z"
         style="fill:#4e9a06;fill-opacity:1;stroke:none"
         inkscape:connector-curvature="0" />
    </g>
    <g
       transform="matrix(0.31190665,0,0,0.31190665,-117.85589,-218.78251)"
       style="fill:#4e9a06"
       id="g3496">
      <path
         inkscape:connector-curvature="0"
         style="fill:#4e9a06;fill-opacity:1;stroke:none"
         d="m 528.80172,479.97622 c 0.14757,0.5214 0.25,1.05635 0.25,1.625 0,3.31946 -2.68054,6.03125 -6,6.03125 -1.53206,0 -2.93848,-0.58758 -4,-1.53125 0.72107,2.51098 3.00717,4.34375 5.75,4.34375 3.31946,0 6.03125,-2.68054 6.03125,-6 0,-1.78434 -0.7965,-3.36796 -2.03125,-4.46875 z"
         id="path3498" />
      <path
         inkscape:connector-curvature="0"
         id="path3500"
         d="m 518.45897,495.88612 c 0.10272,0.36292 0.17401,0.73527 0.17401,1.13108 0,2.31051 -1.86579,4.19805 -4.1763,4.19805 -1.06639,0 -2.04532,-0.40898 -2.78419,-1.06583 0.5019,1.74777 2.09313,3.02347 4.00228,3.02347 2.31051,0 4.19805,-1.86579 4.19805,-4.1763 0,-1.24199 -0.5544,-2.34427 -1.41385,-3.11047 z"
         style="fill:#4e9a06;fill-opacity:1;stroke:none" />
      <path
         inkscape:connector-curvature="0"
         id="path3502"
         d="m 658.60664,475.73357 c -0.16528,0.5214 -0.28001,1.05635 -0.28001,1.625 0,3.31946 3.00231,6.03125 6.72024,6.03125 1.71596,0 3.29121,-0.58758 4.48015,-1.53125 -0.80762,2.51098 -3.36815,4.34375 -6.44022,4.34375 -3.71793,0 -6.75524,-2.68054 -6.75524,-6 0,-1.78434 0.89211,-3.36796 2.27508,-4.46875 z"
         style="fill:#4e9a06;fill-opacity:1;stroke:none" />
      <path
         inkscape:connector-curvature="0"
         style="fill:#4e9a06;fill-opacity:1;stroke:none"
         d="m 671.53399,486.69373 c -0.10272,0.36292 -0.17401,0.73527 -0.17401,1.13108 0,2.31051 1.86579,4.19805 4.1763,4.19805 1.06639,0 2.04532,-0.40898 2.78419,-1.06583 -0.5019,1.74777 -2.09313,3.02347 -4.00228,3.02347 -2.31051,0 -4.19805,-1.86579 -4.19805,-4.1763 0,-1.24199 0.5544,-2.34427 1.41385,-3.11047 z"
         id="path3504" />
      <path
         inkscape:connector-curvature="0"
         style="fill:#4e9a06;fill-opacity:1;stroke:none"
         d="m 676.74759,503.66429 c -0.14757,0.5214 -0.25,1.05635 -0.25,1.625 0,3.31946 2.68054,6.03125 6,6.03125 1.53206,0 2.93848,-0.58758 4,-1.53125 -0.72107,2.51098 -3.00717,4.34375 -5.75,4.34375 -3.31946,0 -6.03125,-2.68054 -6.03125,-6 0,-1.78434 0.7965,-3.36796 2.03125,-4.46875 z"
         id="path3506" />
    </g>
    <rect
       style="opacity:0.62931034;fill:url(#radialGradient4290);fill-opacity:1;stroke:none"
       id="rect3512"
       width="130"
       height="50"
       x="0"
       y="78"
       transform="translate(0,-96)" />
  </g>
</svg>
