<?xml version="1.0" encoding="UTF-8" standalone="no"?>
<!-- Created with Inkscape (http://www.inkscape.org/) -->

<svg
   xmlns:dc="http://purl.org/dc/elements/1.1/"
   xmlns:cc="http://creativecommons.org/ns#"
   xmlns:rdf="http://www.w3.org/1999/02/22-rdf-syntax-ns#"
   xmlns:svg="http://www.w3.org/2000/svg"
   xmlns="http://www.w3.org/2000/svg"
   xmlns:xlink="http://www.w3.org/1999/xlink"
   xmlns:sodipodi="http://sodipodi.sourceforge.net/DTD/sodipodi-0.dtd"
   xmlns:inkscape="http://www.inkscape.org/namespaces/inkscape"
   width="64px"
   height="64px"
   id="svg2985"
   version="1.1"
   inkscape:version="0.48.2 r9819"
   sodipodi:docname="pickupCake.svg">
  <defs
     id="defs2987">
    <linearGradient
       id="linearGradient3777">
      <stop
         style="stop-color:#bebebe;stop-opacity:1;"
         offset="0"
         id="stop3779" />
      <stop
         id="stop3785"
         offset="0.5"
         style="stop-color:#dfdfdf;stop-opacity:1;" />
      <stop
         style="stop-color:#c4c4c4;stop-opacity:1;"
         offset="1"
         id="stop3781" />
    </linearGradient>
    <linearGradient
       inkscape:collect="always"
       xlink:href="#linearGradient3777"
       id="linearGradient3783"
       x1="14"
       y1="30"
       x2="19"
       y2="30"
       gradientUnits="userSpaceOnUse"
       gradientTransform="matrix(1.7086203,0,0,1.7086203,-12.01119,-14.091809)" />
    <linearGradient
       id="linearGradient6821">
      <stop
         id="stop6823"
         offset="0.0000000"
         style="stop-color:#e79b9e;stop-opacity:1.0000000;" />
      <stop
         id="stop6825"
         offset="1"
         style="stop-color:#890f18;stop-opacity:0;" />
    </linearGradient>
    <radialGradient
       inkscape:collect="always"
       xlink:href="#linearGradient6821"
       id="radialGradient5994"
       gradientUnits="userSpaceOnUse"
       gradientTransform="matrix(1.1685244,-0.4193474,0.8154865,1.3966651,-1277.9682,-612.70636)"
       cx="456.3064"
       cy="448.48117"
       fx="456.3064"
       fy="448.48117"
       r="35.800652" />
    <radialGradient
       inkscape:collect="always"
       xlink:href="#linearGradient6821"
       id="radialGradient3069"
       gradientUnits="userSpaceOnUse"
       gradientTransform="matrix(1.1685244,-0.4193474,0.8154865,1.3966651,-1277.9682,-612.70636)"
       cx="456.3064"
       cy="448.48117"
       fx="456.3064"
       fy="448.48117"
       r="35.800652" />
    <linearGradient
       inkscape:collect="always"
       xlink:href="#linearGradient3777"
       id="linearGradient3071"
       gradientUnits="userSpaceOnUse"
       gradientTransform="matrix(1.7086203,0,0,1.7086203,-12.01119,-14.091809)"
       x1="14"
       y1="30"
       x2="19"
       y2="30" />
    <linearGradient
       inkscape:collect="always"
       xlink:href="#linearGradient3777"
       id="linearGradient3092"
       gradientUnits="userSpaceOnUse"
       gradientTransform="matrix(1.7086203,0,0,1.7086203,-12.01119,-14.091809)"
       x1="14"
       y1="30"
       x2="19"
       y2="30" />
    <radialGradient
       inkscape:collect="always"
       xlink:href="#linearGradient6821"
       id="radialGradient3094"
       gradientUnits="userSpaceOnUse"
       gradientTransform="matrix(1.1685244,-0.4193474,0.8154865,1.3966651,-1277.9682,-612.70636)"
       cx="456.3064"
       cy="448.48117"
       fx="456.3064"
       fy="448.48117"
       r="35.800652" />
  </defs>
  <sodipodi:namedview
     id="base"
     pagecolor="#ffffff"
     bordercolor="#666666"
     borderopacity="1.0"
     inkscape:pageopacity="0.0"
     inkscape:pageshadow="2"
     inkscape:zoom="8"
     inkscape:cx="34.074153"
     inkscape:cy="35.191856"
     inkscape:current-layer="layer1"
     showgrid="true"
     inkscape:document-units="px"
     inkscape:grid-bbox="true"
     inkscape:snap-global="false"
     inkscape:window-width="1625"
     inkscape:window-height="1006"
     inkscape:window-x="1280"
     inkscape:window-y="0"
     inkscape:window-maximized="1">
    <inkscape:grid
       type="xygrid"
       id="grid3775" />
  </sodipodi:namedview>
  <metadata
     id="metadata2990">
    <rdf:RDF>
      <cc:Work
         rdf:about="">
        <dc:format>image/svg+xml</dc:format>
        <dc:type
           rdf:resource="http://purl.org/dc/dcmitype/StillImage" />
        <dc:title />
      </cc:Work>
    </rdf:RDF>
  </metadata>
  <g
     id="layer1"
     inkscape:label="Layer 1"
     inkscape:groupmode="layer">
    <g
       inkscape:groupmode="layer"
       inkscape:label="Layer 1"
       id="g2037"
       transform="matrix(0.03440823,0,0,0.03440823,34.863448,29.86562)" />
    <path
       sodipodi:type="star"
       style="opacity:0.71120689;fill:#8ae234;fill-opacity:1;stroke:none"
       id="path5996"
       sodipodi:sides="5"
       sodipodi:cx="9.875"
       sodipodi:cy="11.75"
       sodipodi:r1="31.590397"
       sodipodi:r2="15.795197"
       sodipodi:arg1="0.83298127"
       sodipodi:arg2="1.4612998"
       inkscape:flatsided="false"
       inkscape:rounded="0"
       inkscape:randomized="0"
       d="M 31.125,35.125001 11.601065,27.450603 -5.7893354,39.183224 -4.5237772,18.243339 -21.056092,5.3296641 -0.74999895,0.06250109 6.4228692,-19.65121 17.707167,-1.9666103 38.672558,-1.236679 25.340544,14.960168 z"
       transform="translate(22.749999,22.75)"
       inkscape:transform-center-x="1.0667666"
       inkscape:transform-center-y="-1.983993" />
    <g
       id="g3028"
       transform="translate(-0.75,0.375)">
      <path
         sodipodi:nodetypes="ccccc"
         inkscape:connector-curvature="0"
         id="path3771"
         d="m 20.452595,35.458178 0,17.086203 34.172405,-11.960342 0,-17.086203 z"
         style="fill:#ffffff;fill-opacity:1;stroke:none" />
      <path
         sodipodi:nodetypes="ccccc"
         inkscape:connector-curvature="0"
         id="path3773"
         d="m 11.909494,25.206456 0,17.086203 c 0.769554,4.983888 2.795924,6.756816 8.543101,10.251722 l 0,-17.086203 z"
         style="fill:url(#linearGradient3092);fill-opacity:1;stroke:none" />
      <path
         sodipodi:nodetypes="cccc"
         inkscape:connector-curvature="0"
         id="path2995"
         d="M 20.452596,35.458178 C 15.248891,32.559591 12.28236,28.039843 11.826323,24.398123 l 42.798676,-0.900287 z"
         style="fill:#efecec;fill-opacity:1;stroke:none" />
      <path
         inkscape:connector-curvature="0"
         id="path5223"
         d="M 20.452595,42.292659 54.625,30.332317 l 0,3.417241 L 20.452595,45.7099 z"
         style="fill:#ffb6b6;fill-opacity:1;stroke:none" />
      <path
         style="fill:#ffadad;fill-opacity:1;stroke:none"
         d="M 20.452595,47.41852 54.625,35.458178 l 0,3.41724 -34.172405,11.960342 z"
         id="path5233"
         inkscape:connector-curvature="0" />
      <path
         style="fill:#ffb3b3;fill-opacity:1;stroke:none"
         d="M 20.452595,37.166798 54.625,25.206456 l 0,3.417241 -34.172405,11.960342 z"
         id="path5235"
         inkscape:connector-curvature="0" />
    </g>
    <g
       id="g5982"
       transform="matrix(0.0587906,0,0,0.0587906,46.70567,36.632594)">
      <path
         style="fill:#a4101b;fill-opacity:1;stroke:none"
         d="m -344.55113,-166.27224 c 0,42.58286 -34.08704,77.142866 -76.08716,77.142866 -42.00011,0 -76.08716,-34.560006 -76.08716,-77.142866 0,-42.58287 34.08705,-77.14288 76.08716,-77.14288 42.00012,0 76.08716,34.56001 76.08716,77.14288 z"
         id="path3394"
         inkscape:connector-curvature="0" />
      <path
         id="path3797"
         d="m -421.3463,-244.76372 c -43.1061,0 -78.09374,35.49746 -78.09375,79.15625 0,43.65879 34.98766,79.187495 78.09375,79.187498 43.10611,0 78.09373,-35.528708 78.09375,-79.187498 0,-43.6588 -34.98763,-79.15624 -78.09375,-79.15625 z m 0,4.03125 c 40.89414,1e-5 74.0625,33.61806 74.0625,75.125 -1e-5,41.50694 -33.16837,75.156248 -74.0625,75.156248 -40.8941,-3e-6 -74.0625,-33.649318 -74.0625,-75.156248 10e-6,-41.50694 33.16838,-75.125 74.0625,-75.125 z"
         style="fill:#390308;fill-opacity:1;stroke:none"
         inkscape:connector-curvature="0" />
      <path
         style="fill:#390308;fill-opacity:1;fill-rule:evenodd;stroke:none"
         d="m -437.06621,-223.90366 c -0.86305,0.004 -1.62924,0.55328 -1.91059,1.36919 -0.28135,0.81592 -0.0164,1.72054 0.66059,2.25581 3.8148,3.10452 8.48999,7.16736 13.75,9.5 5.17414,2.29456 11.27956,2.67263 16.75,-1.46875 l 0,0.0312 c 2.88159,-1.5941 6.10831,-3.53567 9.09375,-4.40625 2.98544,-0.87058 5.41219,-0.82845 7.84375,1.3125 0.84569,0.74213 2.13287,0.65819 2.875,-0.1875 0.74213,-0.84569 0.65819,-2.13287 -0.1875,-2.875 -3.55334,-3.12866 -7.94599,-3.24731 -11.6875,-2.15625 -3.74151,1.09106 -7.14867,3.22451 -9.90625,4.75 -0.0988,0.0546 -0.19287,0.1173 -0.28125,0.1875 -4.36083,3.43698 -8.38414,3.07144 -12.84375,1.09375 -4.45961,-1.97769 -8.96892,-5.75288 -12.84375,-8.90625 -0.36414,-0.31742 -0.82947,-0.49468 -1.3125,-0.5 z"
         id="path4559"
         inkscape:connector-curvature="0" />
      <path
         inkscape:connector-curvature="0"
         id="path6236"
         d="m -421.44266,-236.57926 c -12.58568,-0.24967 -26.35507,2.31298 -35.57657,11.51288 -7.72709,10.25598 0.32265,27.72994 13.41214,27.67925 17.01998,1.08977 33.32695,-7.20413 50.40371,-4.61868 16.23602,1.86798 30.00292,14.28377 34.93078,29.64048 3.53193,10.19466 3.22455,21.24775 1.9044,31.81163 4.30559,-5.96971 4.18447,-13.70909 5.19824,-20.69834 0.73429,-14.19361 -2.92963,-28.6799 -10.80905,-40.55473 -8.06256,-8.73939 -21.44553,-11.50951 -32.4702,-7.2923 -13.84893,3.09154 -28.79766,4.35575 -42.39044,-0.50777 -5.72465,-1.48391 -10.33936,-8.34978 -5.89854,-13.56439 3.76597,-5.15085 10.66833,-4.00059 16.1746,-5.1967 16.61239,-1.88865 34.25362,0.3949 48.63875,9.36505 4.60873,-0.63576 -3.61152,-4.96703 -5.06109,-6.17303 -11.22099,-7.65792 -24.90347,-11.53838 -38.45673,-11.40335 z"
         style="opacity:0.43902438;fill:#ebb4b5;fill-opacity:1;stroke:none" />
      <path
         style="opacity:0.30313589;fill:#000000;fill-opacity:1;fill-rule:evenodd;stroke:none;stroke-width:0.25pt;marker:none;visibility:visible;display:inline;overflow:visible"
         d="m -400.78639,-218.1349 c 0,3.42635 -6.72002,6.20716 -15.00005,6.20716 -8.28003,0 -15.00006,-2.78081 -15.00006,-6.20716 0,-3.42636 6.72003,-6.20716 15.00006,-6.20716 8.28003,0 15.00005,2.7808 15.00005,6.20716 z"
         id="path12957"
         inkscape:connector-curvature="0" />
      <path
         style="fill:url(#radialGradient3094);fill-opacity:1;stroke:none"
         d="m -362.67261,-179.71302 c 9.12957,15.636 5.92187,32.13628 -7.16004,36.83097 -13.08191,4.6947 -31.10862,-4.1852 -40.23819,-19.82121 -9.12957,-15.636 -5.92187,-32.13627 7.16005,-36.83097 13.08191,-4.69469 31.10861,4.18521 40.23818,19.82121 z"
         id="path6819"
         inkscape:connector-curvature="0" />
      <path
         id="path6829"
         d="m -479.82442,-199.96707 c -7.7324,11.61567 -11.8903,24.94517 -10.96199,38.46874 0.64624,31.75792 28.73157,61.04473 64.38805,68.406249 -35.00444,-16.052369 -58.5975,-45.747469 -58.5975,-79.812499 0,-9.41576 1.83077,-18.50054 5.17144,-27.06249 z"
         style="opacity:0.65156795;fill:#5b050b;fill-opacity:1;stroke:none"
         inkscape:connector-curvature="0" />
      <path
         inkscape:connector-curvature="0"
         id="path3343"
         d="m -420.15571,-212.34246 c 1.81873,-40.91311 8.2183,-82.67988 -1.93427,-123.03502 -5.23349,-24.02333 -12.67638,-47.82668 -24.76819,-69.32921 -2.2184,-5.72227 4.71799,-8.19172 5.5074,-1.37963 11.78306,19.27618 18.70016,40.95095 23.87479,62.80696 5.25746,19.6454 7.93404,39.89107 8.03665,60.2253 0.35736,22.24951 -0.62086,44.52154 -1.21731,66.74046 -0.81755,4.1038 -6.06108,7.68243 -9.49907,3.97114 z"
         style="fill:#9e6800;fill-opacity:1;fill-rule:evenodd;stroke:none" />
      <path
         style="fill:#390308;fill-opacity:1;fill-rule:evenodd;stroke:none"
         d="m -443.88081,-410.68276 c -0.49072,-0.10574 -0.97001,-0.0821 -1.4375,0.0625 -1.86996,0.57841 -3.11894,3.01501 -1.9375,6.0625 l 0,0.0312 0,0.0312 c 12.0575,21.44152 19.49162,45.19339 24.71875,69.1875 l 0.0312,0 c 10.12053,40.22776 3.72662,81.95624 1.90625,122.90625 l 0,0.21875 0.125,0.15625 c 1.85956,2.00739 4.35493,2.04974 6.34375,1.03125 1.98882,-1.01848 3.5879,-3.02454 4.03125,-5.25 l 0,-0.0625 0,-0.0312 c 0.5963,-22.21322 1.57642,-44.48049 1.21875,-66.75 -0.10282,-20.37644 -2.79382,-40.65642 -8.0625,-60.34375 -5.16453,-21.81335 -12.08594,-43.45111 -23.84375,-62.75 -0.001,-0.0114 10e-4,-0.0199 0,-0.0312 -0.21127,-1.77139 -0.84668,-3.01286 -1.6875,-3.75 -0.42311,-0.37093 -0.91553,-0.61301 -1.40625,-0.71875 z m -0.1875,0.96875 c 0.32124,0.0689 0.63397,0.2339 0.9375,0.5 0.60705,0.53219 1.15643,1.53983 1.34375,3.15625 l 0,0.0937 0.0625,0.0937 c 11.74149,19.20816 18.64381,40.82533 23.8125,62.65625 l 0,0.0312 c 5.24623,19.60346 7.92885,39.80171 8.03125,60.09375 0.35653,22.19827 -0.62192,44.43148 -1.21875,66.625 -0.3742,1.87833 -1.80317,3.7248 -3.5,4.59375 -1.64897,0.84445 -3.45088,0.8446 -5,-0.71875 1.83006,-40.80718 8.22909,-82.52664 -1.9375,-122.9375 -5.23492,-24.02985 -12.70663,-47.85878 -24.8125,-69.40625 -0.009,-0.0244 -0.0221,-0.0383 -0.0312,-0.0625 -0.98893,-2.63222 0.11409,-4.27589 1.34375,-4.65625 0.31025,-0.096 0.64751,-0.13144 0.96875,-0.0625 z"
         id="path6215"
         inkscape:connector-curvature="0" />
      <path
         sodipodi:nodetypes="sss"
         inkscape:connector-curvature="0"
         id="path5968"
         d="m -432.74654,-377.69646 c 10.27854,-4.76031 -3.78538,-49.66298 -20.07425,-43.78977 -15.41648,5.55866 20.07425,43.78977 20.07425,43.78977 z"
         style="fill:#612400;fill-opacity:1;stroke:none" />
    </g>
  </g>
</svg>
