<?xml version="1.0" encoding="UTF-8" standalone="no"?>
<!-- Created with Inkscape (http://www.inkscape.org/) -->

<svg
   xmlns:dc="http://purl.org/dc/elements/1.1/"
   xmlns:cc="http://creativecommons.org/ns#"
   xmlns:rdf="http://www.w3.org/1999/02/22-rdf-syntax-ns#"
   xmlns:svg="http://www.w3.org/2000/svg"
   xmlns="http://www.w3.org/2000/svg"
   xmlns:sodipodi="http://sodipodi.sourceforge.net/DTD/sodipodi-0.dtd"
   xmlns:inkscape="http://www.inkscape.org/namespaces/inkscape"
   width="128"
   height="128"
   id="svg2985"
   version="1.1"
   inkscape:version="0.48.2 r9819"
   sodipodi:docname="playerfront.svg">
  <defs
     id="defs5554">
    <inkscape:perspective
       sodipodi:type="inkscape:persp3d"
       inkscape:vp_x="-13.099757 : 4.711852 : 0"
       inkscape:vp_y="-14.153275 : 28.773343 : 1"
       inkscape:vp_z="1.084466 : -7.0272249 : 0"
       inkscape:persp3d-origin="25 : 12.951905 : 1"
       id="perspective9519" />
  </defs>
  <sodipodi:namedview
     id="base"
     pagecolor="#ffffff"
     bordercolor="#666666"
     borderopacity="1.0"
     inkscape:pageopacity="0.0"
     inkscape:pageshadow="2"
     inkscape:zoom="2.56"
     inkscape:cx="44.329128"
     inkscape:cy="24.635307"
     inkscape:current-layer="layer1"
     showgrid="true"
     inkscape:grid-bbox="true"
     inkscape:document-units="px"
     inkscape:window-width="1231"
     inkscape:window-height="756"
     inkscape:window-x="0"
     inkscape:window-y="0"
     inkscape:window-maximized="0"
     showguides="false">
    <inkscape:grid
       type="xygrid"
       id="grid2993"
       empspacing="5"
       visible="true"
       enabled="true"
       snapvisiblegridlinesonly="true" />
  </sodipodi:namedview>
  <metadata
     id="metadata2990">
    <rdf:RDF>
      <cc:Work
         rdf:about="">
        <dc:format>image/svg+xml</dc:format>
        <dc:type
           rdf:resource="http://purl.org/dc/dcmitype/StillImage" />
        <dc:title></dc:title>
      </cc:Work>
    </rdf:RDF>
  </metadata>
  <g
     id="layer1"
     inkscape:label="Layer 1"
     inkscape:groupmode="layer"
     transform="translate(0,96)">
    <path
       style="fill:#f57900;fill-opacity:1;stroke:none"
       d="m 24.104129,-49.338458 21.182248,15.130178 0,9.078104 -21.182248,-15.130174 z"
       id="rect10176"
       inkscape:connector-curvature="0"
       sodipodi:nodetypes="ccccc" />
    <path
       style="fill:#8f5902;fill-opacity:1;stroke:none"
       d="m 18.052059,-40.26035 6.05207,0 21.182248,15.130174 -6.05207,0 z"
       id="rect10180"
       inkscape:connector-curvature="0"
       sodipodi:nodetypes="ccccc" />
    <path
       style="fill:#ce5c00;fill-opacity:1;stroke:none"
       d="m 18.052059,-49.338458 6.05207,0 0,9.078108 -6.05207,0 z"
       id="rect10178"
       inkscape:connector-curvature="0"
       sodipodi:nodetypes="ccccc" />
    <path
       sodipodi:nodetypes="ccccc"
       inkscape:connector-curvature="0"
       id="path11305"
       d="m 67.208269,-76.234314 12.104141,0 3.078104,3.026034 -12.104137,0 z"
       style="fill:#d3d7cf;fill-opacity:1;stroke:none" />
    <g
       id="g10191"
       transform="matrix(3.026035,0,0,3.026035,14.505327,-78.546735)">
      <path
         style="fill:#f57900;fill-opacity:1;stroke:none"
         d="m 30,10 -7,5 0,3 7,-5 z"
         id="path10185"
         inkscape:connector-curvature="0"
         sodipodi:nodetypes="ccccc" />
      <path
         style="fill:#8f5902;fill-opacity:1;stroke:none"
         d="m 32,13 -2,0 -7,5 2,0 z"
         id="path10187"
         inkscape:connector-curvature="0"
         sodipodi:nodetypes="ccccc" />
      <path
         style="fill:#ce5c00;fill-opacity:1;stroke:none"
         d="m 32,10 -2,0 0,3 2,0 z"
         id="path10189"
         inkscape:connector-curvature="0"
         sodipodi:nodetypes="ccccc" />
    </g>
    <rect
       y="-2.104146"
       x="88.702942"
       height="9.078105"
       width="9.078105"
       id="rect10053"
       style="fill:#555753;fill-opacity:1;stroke:none" />
    <rect
       style="fill:#f57900;fill-opacity:1;stroke:none"
       id="rect9512"
       width="45.390526"
       height="33.286385"
       x="42.947922"
       y="-35.234318" />
    <path
       sodipodi:nodetypes="ccccc"
       inkscape:connector-curvature="0"
       id="path9517"
       d="m 43.286377,-41.20828 45,0 0,6 -45,0 z"
       style="fill:#fcaf3e;fill-opacity:1;stroke:none" />
    <rect
       style="fill:#555753;fill-opacity:1;stroke:none"
       id="rect9535"
       width="9.078105"
       height="9.078105"
       x="34.234303"
       y="-2.1041446" />
    <path
       inkscape:connector-curvature="0"
       id="path10049"
       d="m 43.312407,-2.1041445 -9.078105,0 -0.02602,-21.1041365 9.078105,0 z"
       style="fill:#888a85;fill-opacity:1;stroke:none"
       sodipodi:nodetypes="ccccc" />
    <rect
       ry="0"
       style="fill:#888a85;fill-opacity:1;stroke:none"
       id="rect10104"
       width="6.0520701"
       height="24.208279"
       x="63.416573"
       y="-62.624844" />
    <rect
       ry="0"
       style="fill:#bcbcbc;fill-opacity:1;stroke:none"
       id="rect11301"
       width="12.10414"
       height="12.10414"
       x="70.286369"
       y="-73.208282" />
    <path
       style="fill:#555753;fill-opacity:1;stroke:none"
       d="m 62.390524,-65.650878 1.026036,3.026036 -4e-6,24.208281 -1.026032,-3.026033 z"
       id="path10106"
       inkscape:connector-curvature="0"
       sodipodi:nodetypes="ccccc" />
    <rect
       style="fill:#cc0000;fill-opacity:1;stroke:none"
       id="rect10160"
       width="3.0260351"
       height="6.0520701"
       x="49.260353"
       y="-17.078106" />
    <rect
       style="fill:#ce5c00;fill-opacity:1;stroke:none"
       id="rect10162"
       width="27.234316"
       height="9.078105"
       x="55"
       y="-17.078106" />
    <rect
       style="fill:#babdb6;fill-opacity:1;stroke:none"
       id="rect10164"
       width="33.286385"
       height="12.10414"
       x="48.999996"
       y="-32.208279" />
    <rect
       style="fill:#73d216;fill-opacity:1;stroke:none"
       id="rect10166"
       width="3.0260351"
       height="6.0520701"
       x="76.234314"
       y="-29.182247" />
    <rect
       y="-29.182247"
       x="70.182251"
       height="6.0520701"
       width="3.0260351"
       id="rect10168"
       style="fill:#73d216;fill-opacity:1;stroke:none" />
    <rect
       style="fill:#73d216;fill-opacity:1;stroke:none"
       id="rect10170"
       width="3.0260351"
       height="6.0520701"
       x="64.130173"
       y="-29.182247" />
    <rect
       y="-29.182247"
       x="58.078102"
       height="6.0520701"
       width="3.0260351"
       id="rect10172"
       style="fill:#73d216;fill-opacity:1;stroke:none" />
    <rect
       style="fill:#73d216;fill-opacity:1;stroke:none"
       id="rect10174"
       width="3.0260351"
       height="6.0520701"
       x="52.026035"
       y="-29.182247" />
    <path
       inkscape:connector-curvature="0"
       id="path11311"
       d="m 81.001257,-67.206521 c 0,2.50685 -2.032203,4.539052 -4.539053,4.539052 -2.50685,0 -4.539054,-2.032202 -4.539054,-4.539052 0,-2.50685 2.032204,-4.539053 4.539054,-4.539053 2.50685,0 4.539053,2.032203 4.539053,4.539053 z"
       style="fill:#ffffff;fill-opacity:1;stroke:none" />
    <path
       inkscape:connector-curvature="0"
       style="fill:#000000;fill-opacity:1;stroke:none"
       d="m 79.279279,-67.256832 c 0,1.671233 -1.354802,3.026033 -3.026033,3.026033 -1.671235,0 -3.026037,-1.3548 -3.026037,-3.026033 0,-1.671234 1.354802,-3.026036 3.026037,-3.026036 1.671231,0 3.026033,1.354802 3.026033,3.026036 z"
       id="path11313" />
    <path
       style="fill:#9c9c9c;fill-opacity:1;stroke:none"
       d="m 67.208269,-76.234314 3.078108,3.026034 0,12.104141 -3.078108,-3.026035 z"
       id="path11303"
       inkscape:connector-curvature="0"
       sodipodi:nodetypes="ccccc" />
    <g
       id="g4424"
       transform="translate(-9.7136227,-1.2082805)">
      <rect
         y="-65"
         x="70"
         height="4"
         width="9"
         id="rect3911"
         style="fill:#888a85;fill-opacity:1;stroke:none" />
      <path
         sodipodi:nodetypes="ccccc"
         inkscape:connector-curvature="0"
         id="rect4421"
         d="m 69,-67 9,0 1,2 -9,0 z"
         style="fill:#888a85;fill-opacity:1;stroke:none" />
    </g>
    <path
       style="fill:#d3d7cf;fill-opacity:1;stroke:none"
       d="m 48.104132,-76.338453 12.104141,0 3.078104,3.026034 -12.104137,0 z"
       id="path3882"
       inkscape:connector-curvature="0"
       sodipodi:nodetypes="ccccc" />
    <rect
       y="-73.312424"
       x="51.182236"
       height="12.10414"
       width="12.10414"
       id="rect3884"
       style="fill:#bcbcbc;fill-opacity:1;stroke:none"
       ry="0" />
    <path
       style="fill:#ffffff;fill-opacity:1;stroke:none"
       d="m 61.89712,-67.31066 c 0,2.50685 -2.032203,4.539052 -4.539053,4.539052 -2.50685,0 -4.539054,-2.032202 -4.539054,-4.539052 0,-2.50685 2.032204,-4.539053 4.539054,-4.539053 2.50685,0 4.539053,2.032203 4.539053,4.539053 z"
       id="path3886"
       inkscape:connector-curvature="0" />
    <path
       id="path3888"
       d="m 60.175142,-67.360971 c 0,1.671233 -1.354802,3.026033 -3.026033,3.026033 -1.671235,0 -3.026037,-1.3548 -3.026037,-3.026033 0,-1.671234 1.354802,-3.026036 3.026037,-3.026036 1.671231,0 3.026033,1.354802 3.026033,3.026036 z"
       style="fill:#000000;fill-opacity:1;stroke:none"
       inkscape:connector-curvature="0" />
    <path
       sodipodi:nodetypes="ccccc"
       inkscape:connector-curvature="0"
       id="path3890"
       d="m 48.104132,-76.338453 3.078108,3.026034 0,12.104141 -3.078108,-3.026035 z"
       style="fill:#9c9c9c;fill-opacity:1;stroke:none" />
    <path
       sodipodi:nodetypes="ccccc"
       style="fill:#888a85;fill-opacity:1;stroke:none"
       d="m 97.312404,-2.1041445 -9.078102,0 -0.02602,-21.1041365 9.078102,0 z"
       id="path4428"
       inkscape:connector-curvature="0" />
  </g>
</svg>
