<?xml version="1.0" encoding="UTF-8" standalone="no"?>
<!-- Created with Inkscape (http://www.inkscape.org/) -->

<svg
   xmlns:dc="http://purl.org/dc/elements/1.1/"
   xmlns:cc="http://creativecommons.org/ns#"
   xmlns:rdf="http://www.w3.org/1999/02/22-rdf-syntax-ns#"
   xmlns:svg="http://www.w3.org/2000/svg"
   xmlns="http://www.w3.org/2000/svg"
   xmlns:sodipodi="http://sodipodi.sourceforge.net/DTD/sodipodi-0.dtd"
   xmlns:inkscape="http://www.inkscape.org/namespaces/inkscape"
   width="64px"
   height="64px"
   id="svg3049"
   version="1.1"
   inkscape:version="0.48.2 r9819"
   sodipodi:docname="player_new.svg">
  <defs
     id="defs3051" />
  <sodipodi:namedview
     id="base"
     pagecolor="#ffffff"
     bordercolor="#666666"
     borderopacity="1.0"
     inkscape:pageopacity="0.0"
     inkscape:pageshadow="2"
     inkscape:zoom="5.5"
     inkscape:cx="28.909091"
     inkscape:cy="30.272727"
     inkscape:current-layer="layer1"
     showgrid="true"
     inkscape:document-units="px"
     inkscape:grid-bbox="true"
     inkscape:window-width="1232"
     inkscape:window-height="756"
     inkscape:window-x="0"
     inkscape:window-y="0"
     inkscape:window-maximized="1">
    <inkscape:grid
       type="xygrid"
       id="grid3057" />
  </sodipodi:namedview>
  <metadata
     id="metadata3054">
    <rdf:RDF>
      <cc:Work
         rdf:about="">
        <dc:format>image/svg+xml</dc:format>
        <dc:type
           rdf:resource="http://purl.org/dc/dcmitype/StillImage" />
        <dc:title></dc:title>
      </cc:Work>
    </rdf:RDF>
  </metadata>
  <g
     id="layer1"
     inkscape:label="Layer 1"
     inkscape:groupmode="layer">
    <g
       id="g3864"
       transform="translate(5,-5)">
      <path
         style="fill:#2e3436;fill-opacity:1;stroke:none"
         d="m 15,34 -5,15 5,5 40,0 5,-5 -5,-5 -35,-15 z"
         id="path3866"
         inkscape:connector-curvature="0"
         sodipodi:nodetypes="cccccccc" />
      <path
         sodipodi:type="arc"
         style="fill:#555753;fill-opacity:1;stroke:#000000;stroke-opacity:1"
         id="path3868"
         sodipodi:cx="-5"
         sodipodi:cy="44"
         sodipodi:rx="5"
         sodipodi:ry="5"
         d="m 0,44 a 5,5 0 1 1 -10,0 5,5 0 1 1 10,0 z"
         transform="translate(25,-10)" />
      <path
         d="m 0,44 a 5,5 0 1 1 -10,0 5,5 0 1 1 10,0 z"
         sodipodi:ry="5"
         sodipodi:rx="5"
         sodipodi:cy="44"
         sodipodi:cx="-5"
         id="path3870"
         style="fill:#555753;fill-opacity:1;stroke:#000000;stroke-opacity:1"
         sodipodi:type="arc"
         transform="translate(20,5)" />
      <path
         sodipodi:type="arc"
         style="fill:#555753;fill-opacity:1;stroke:#000000;stroke-opacity:1"
         id="path3872"
         sodipodi:cx="-5"
         sodipodi:cy="44"
         sodipodi:rx="5"
         sodipodi:ry="5"
         d="m 0,44 a 5,5 0 1 1 -10,0 5,5 0 1 1 10,0 z"
         transform="translate(60,5)" />
    </g>
    <rect
       style="fill:#f57900;fill-opacity:1;stroke:none"
       id="rect3059"
       width="40"
       height="25"
       x="30"
       y="-11" />
    <g
       id="g3858"
       transform="translate(-20,10)">
      <path
         sodipodi:nodetypes="cccccccc"
         inkscape:connector-curvature="0"
         id="path3835"
         d="m 15,34 -5,15 5,5 40,0 5,-5 -5,-5 -35,-15 z"
         style="fill:#2e3436;fill-opacity:1;stroke:none" />
      <path
         transform="translate(25,-10)"
         d="m 0,44 a 5,5 0 1 1 -10,0 5,5 0 1 1 10,0 z"
         sodipodi:ry="5"
         sodipodi:rx="5"
         sodipodi:cy="44"
         sodipodi:cx="-5"
         id="path3829"
         style="fill:#555753;fill-opacity:1;stroke:#000000;stroke-opacity:1"
         sodipodi:type="arc" />
      <path
         transform="translate(20,5)"
         sodipodi:type="arc"
         style="fill:#555753;fill-opacity:1;stroke:#000000;stroke-opacity:1"
         id="path3831"
         sodipodi:cx="-5"
         sodipodi:cy="44"
         sodipodi:rx="5"
         sodipodi:ry="5"
         d="m 0,44 a 5,5 0 1 1 -10,0 5,5 0 1 1 10,0 z" />
      <path
         transform="translate(60,5)"
         d="m 0,44 a 5,5 0 1 1 -10,0 5,5 0 1 1 10,0 z"
         sodipodi:ry="5"
         sodipodi:rx="5"
         sodipodi:cy="44"
         sodipodi:cx="-5"
         id="path3833"
         style="fill:#555753;fill-opacity:1;stroke:#000000;stroke-opacity:1"
         sodipodi:type="arc" />
    </g>
    <rect
       style="fill:#555753;fill-opacity:1;stroke:none"
       id="rect3856"
       width="5"
       height="15"
       x="-5"
       y="-1" />
  </g>
</svg>
