<?xml version="1.0" encoding="UTF-8" standalone="no"?>
<!-- Created with Inkscape (http://www.inkscape.org/) -->

<svg
   xmlns:dc="http://purl.org/dc/elements/1.1/"
   xmlns:cc="http://creativecommons.org/ns#"
   xmlns:rdf="http://www.w3.org/1999/02/22-rdf-syntax-ns#"
   xmlns:svg="http://www.w3.org/2000/svg"
   xmlns="http://www.w3.org/2000/svg"
   xmlns:sodipodi="http://sodipodi.sourceforge.net/DTD/sodipodi-0.dtd"
   xmlns:inkscape="http://www.inkscape.org/namespaces/inkscape"
   width="128"
   height="128"
   id="svg2985"
   version="1.1"
   inkscape:version="0.48.2 r9819"
   sodipodi:docname="playerleft.svg">
  <defs
     id="defs5554">
    <inkscape:perspective
       sodipodi:type="inkscape:persp3d"
       inkscape:vp_x="-13.099757 : 4.711852 : 0"
       inkscape:vp_y="-14.153275 : 28.773343 : 1"
       inkscape:vp_z="1.084466 : -7.0272249 : 0"
       inkscape:persp3d-origin="25 : 12.951905 : 1"
       id="perspective9519" />
  </defs>
  <sodipodi:namedview
     id="base"
     pagecolor="#ffffff"
     bordercolor="#666666"
     borderopacity="1.0"
     inkscape:pageopacity="0.0"
     inkscape:pageshadow="2"
     inkscape:zoom="3.6203868"
     inkscape:cx="135.42508"
     inkscape:cy="88.695135"
     inkscape:current-layer="layer1"
     showgrid="true"
     inkscape:grid-bbox="true"
     inkscape:document-units="px"
     inkscape:window-width="1625"
     inkscape:window-height="1006"
     inkscape:window-x="1280"
     inkscape:window-y="22"
     inkscape:window-maximized="0"
     showguides="false">
    <inkscape:grid
       type="xygrid"
       id="grid2993"
       empspacing="5"
       visible="true"
       enabled="true"
       snapvisiblegridlinesonly="true" />
  </sodipodi:namedview>
  <metadata
     id="metadata2990">
    <rdf:RDF>
      <cc:Work
         rdf:about="">
        <dc:format>image/svg+xml</dc:format>
        <dc:type
           rdf:resource="http://purl.org/dc/dcmitype/StillImage" />
        <dc:title />
      </cc:Work>
    </rdf:RDF>
  </metadata>
  <g
     id="layer1"
     inkscape:label="Layer 1"
     inkscape:groupmode="layer"
     transform="translate(0,96)">
    <rect
       ry="0"
       style="fill:#bcbcbc;fill-opacity:1;stroke:none"
       id="rect11301"
       width="12.10414"
       height="12.10414"
       x="-60.921898"
       y="-74.312424"
       transform="scale(-1,1)" />
    <path
       style="fill:#9c9c9c;fill-opacity:1;stroke:none"
       d="m 70,-77.338457 -9.078108,3.026034 0,12.104141 L 70,-65.234317 z"
       id="path11303"
       inkscape:connector-curvature="0"
       sodipodi:nodetypes="ccccc" />
    <path
       sodipodi:nodetypes="ccccc"
       inkscape:connector-curvature="0"
       id="path11305"
       d="m 70,-77.338457 -12.104141,0 -9.078104,3.026034 12.104137,0 z"
       style="fill:#d3d7cf;fill-opacity:1;stroke:none" />
    <g
       id="g10191"
       transform="matrix(-3.026035,0,0,3.026035,118.41656,-83.390528)">
      <path
         style="fill:#f57900;fill-opacity:1;stroke:none"
         d="m 30,10 -7,5 0,3 7,-5 z"
         id="path10185"
         inkscape:connector-curvature="0"
         sodipodi:nodetypes="ccccc" />
      <path
         style="fill:#8f5902;fill-opacity:1;stroke:none"
         d="m 32,13 -2,0 -7,5 2,0 z"
         id="path10187"
         inkscape:connector-curvature="0"
         sodipodi:nodetypes="ccccc" />
      <path
         style="fill:#ce5c00;fill-opacity:1;stroke:none"
         d="m 32,10 -2,0 0,3 2,0 z"
         id="path10189"
         inkscape:connector-curvature="0"
         sodipodi:nodetypes="ccccc" />
    </g>
    <path
       inkscape:connector-curvature="0"
       id="path10051"
       d="m 36.713615,-1.6875779 0,9.0781035 15.130174,-12.1041407 0,-9.0781039 z"
       style="fill:#000000;fill-opacity:1;stroke:none" />
    <rect
       y="-1.6875845"
       x="-36.713615"
       height="9.078105"
       width="9.078105"
       id="rect10053"
       style="fill:#555753;fill-opacity:1;stroke:none"
       transform="scale(-1,1)" />
    <path
       sodipodi:nodetypes="ccccc"
       style="fill:#888a85;fill-opacity:1;stroke:none"
       d="m 27.635511,-1.6875779 9.078104,0 9.078107,-21.1822441 -9.078107,0 z"
       id="path10055"
       inkscape:connector-curvature="0" />
    <g
       id="g10119"
       transform="matrix(-3.026035,0,0,3.026035,112.3645,-83.390528)">
      <rect
         y="16"
         x="10"
         height="11"
         width="15"
         id="rect9512"
         style="fill:#f57900;fill-opacity:1;stroke:none" />
      <path
         sodipodi:nodetypes="ccccc"
         inkscape:connector-curvature="0"
         id="rect9514"
         d="m 5,14 5,2 0,11 -5,-3 z"
         style="fill:#ce5c00;fill-opacity:1;stroke:none" />
      <path
         style="fill:#fcaf3e;fill-opacity:1;stroke:none"
         d="m 5,14 15,0 5,2 -15,0 z"
         id="path9517"
         inkscape:connector-curvature="0"
         sodipodi:nodetypes="ccccc" />
    </g>
    <g
       id="g10124"
       transform="matrix(-3.026035,0,0,3.026035,112.3645,-83.390528)">
      <path
         sodipodi:nodetypes="cccccc"
         inkscape:connector-curvature="0"
         id="path9539"
         d="M 7,27 7,30 2,26 2,24 4,20 z"
         style="fill:#000000;fill-opacity:1;stroke:none" />
      <rect
         y="27"
         x="7"
         height="3"
         width="3"
         id="rect9535"
         style="fill:#555753;fill-opacity:1;stroke:none" />
      <path
         sodipodi:nodetypes="ccccc"
         style="fill:#888a85;fill-opacity:1;stroke:none"
         d="M 10,27 7,27 4,20 7,20 z"
         id="path10049"
         inkscape:connector-curvature="0" />
    </g>
    <rect
       ry="0"
       style="fill:#888a85;fill-opacity:1;stroke:none"
       id="rect10104"
       width="6.0520701"
       height="24.208279"
       x="-69.999985"
       y="-62.208279"
       transform="scale(-1,1)" />
    <path
       style="fill:#555753;fill-opacity:1;stroke:none"
       d="M 73.026032,-65.234317 69.999996,-62.208281 70,-38 l 3.026032,-3.026033 z"
       id="path10106"
       inkscape:connector-curvature="0"
       sodipodi:nodetypes="ccccc" />
    <rect
       y="-74.312424"
       x="-76.052071"
       height="12.10414"
       width="12.10414"
       id="rect10057"
       style="fill:#bcbcbc;fill-opacity:1;stroke:none"
       ry="0"
       transform="scale(-1,1)" />
    <path
       sodipodi:nodetypes="ccccc"
       inkscape:connector-curvature="0"
       id="path10059"
       d="m 85.130177,-77.338458 -9.078107,3.026035 0,12.104141 9.078107,-3.026035 z"
       style="fill:#9c9c9c;fill-opacity:1;stroke:none" />
    <path
       style="fill:#d3d7cf;fill-opacity:1;stroke:none"
       d="m 85.130177,-77.338458 -12.104145,0 -9.078102,3.026035 12.10414,0 z"
       id="path10061"
       inkscape:connector-curvature="0"
       sodipodi:nodetypes="ccccc" />
    <path
       style="fill:#ffffff;fill-opacity:1;stroke:none"
       d="m 65.251992,-68.519622 c 0,2.506849 2.032199,4.539052 4.539049,4.539052 2.506851,0 4.539054,-2.032203 4.539054,-4.539052 0,-2.506849 -2.032203,-4.539052 -4.539054,-4.539052 -2.50685,0 -4.539049,2.032203 -4.539049,4.539052 z"
       id="path10063"
       inkscape:connector-curvature="0" />
    <path
       id="path10068"
       d="m 66.765008,-68.569933 c 0,1.671232 1.354802,3.026034 3.026033,3.026034 1.671235,0 3.026037,-1.354802 3.026037,-3.026034 0,-1.671233 -1.354802,-3.026036 -3.026037,-3.026036 -1.671231,0 -3.026033,1.354803 -3.026033,3.026036 z"
       style="fill:#000000;fill-opacity:1;stroke:none"
       inkscape:connector-curvature="0" />
    <rect
       style="fill:#cc0000;fill-opacity:1;stroke:none"
       id="rect10160"
       width="3.0260351"
       height="6.0520701"
       x="-45.791714"
       y="-16.817755"
       transform="scale(-1,1)" />
    <rect
       style="fill:#ce5c00;fill-opacity:1;stroke:none"
       id="rect10162"
       width="27.234316"
       height="9.078105"
       x="-76.052071"
       y="-16.817755"
       transform="scale(-1,1)" />
    <rect
       style="fill:#babdb6;fill-opacity:1;stroke:none"
       id="rect10164"
       width="33.286385"
       height="12.10414"
       x="-76.052071"
       y="-31.947931"
       transform="scale(-1,1)" />
    <rect
       style="fill:#73d216;fill-opacity:1;stroke:none"
       id="rect10166"
       width="3.0260351"
       height="6.0520701"
       x="-48.817757"
       y="-28.921898"
       transform="scale(-1,1)" />
    <rect
       y="-28.921898"
       x="-54.869816"
       height="6.0520701"
       width="3.0260351"
       id="rect10168"
       style="fill:#73d216;fill-opacity:1;stroke:none"
       transform="scale(-1,1)" />
    <rect
       style="fill:#73d216;fill-opacity:1;stroke:none"
       id="rect10170"
       width="3.0260351"
       height="6.0520701"
       x="-60.921898"
       y="-28.921898"
       transform="scale(-1,1)" />
    <rect
       y="-28.921898"
       x="-66.973969"
       height="6.0520701"
       width="3.0260351"
       id="rect10172"
       style="fill:#73d216;fill-opacity:1;stroke:none"
       transform="scale(-1,1)" />
    <rect
       style="fill:#73d216;fill-opacity:1;stroke:none"
       id="rect10174"
       width="3.0260351"
       height="6.0520701"
       x="-73.026031"
       y="-28.921898"
       transform="scale(-1,1)" />
    <path
       style="fill:#f57900;fill-opacity:1;stroke:none"
       d="m 109.33846,-50.104141 -21.182249,15.130178 0,9.078104 21.182249,-15.130174 z"
       id="rect10176"
       inkscape:connector-curvature="0"
       sodipodi:nodetypes="ccccc" />
    <path
       style="fill:#8f5902;fill-opacity:1;stroke:none"
       d="m 115.39053,-41.026033 -6.05207,0 -21.182249,15.130174 6.05207,0 z"
       id="rect10180"
       inkscape:connector-curvature="0"
       sodipodi:nodetypes="ccccc" />
    <path
       style="fill:#ce5c00;fill-opacity:1;stroke:none"
       d="m 115.39053,-50.104141 -6.05207,0 0,9.078108 6.05207,0 z"
       id="rect10178"
       inkscape:connector-curvature="0"
       sodipodi:nodetypes="ccccc" />
    <path
       inkscape:connector-curvature="0"
       id="path11311"
       d="m 50.207012,-68.310664 c 0,2.50685 2.032203,4.539052 4.539053,4.539052 2.50685,0 4.539054,-2.032202 4.539054,-4.539052 0,-2.50685 -2.032204,-4.539053 -4.539054,-4.539053 -2.50685,0 -4.539053,2.032203 -4.539053,4.539053 z"
       style="fill:#ffffff;fill-opacity:1;stroke:none" />
    <path
       inkscape:connector-curvature="0"
       style="fill:#000000;fill-opacity:1;stroke:none"
       d="m 51.92899,-68.360975 c 0,1.671233 1.354802,3.026033 3.026033,3.026033 1.671235,0 3.026037,-1.3548 3.026037,-3.026033 0,-1.671234 -1.354802,-3.026036 -3.026037,-3.026036 -1.671231,0 -3.026033,1.354802 -3.026033,3.026036 z"
       id="path11313" />
  </g>
</svg>
